# xmcd
#
# Track frame offsets: 
#        150
#        19135
#        30952
#        45208
#        62460
#        78278
#        91538
#        110359
#        122511
#        135841
#        154641
#        166577
#        181331
#        193002
#
# Disc length: 2728 seconds
#
# Revision: 1
# Processed by: cddbd v1.5.2PL0 Copyright (c) Steve Scherf et al.
# Submitted via: ExactAudioCopyFreeDBPlugin 1.0
#
DISCID=8b0aa60e
DTITLE=Mike Krüger - Quickborn Country
DYEAR=1999
DGENRE=Comedy
TTITLE0=Der Nippel
TTITLE1=Das Zweiersofa DOTTEViK
TTITLE2=Bodo mit dem Bagger
TTITLE3=Rudi mit dem gelben Nummernschild
TTITLE4=Nockermann
TTITLE5=Mein Schäferhund der Edgar
TTITLE6=ich bin Bundeswehrsoldat
TTITLE7=Sie ist eine Hausfrau
TTITLE8=Born in Quickborn
TTITLE9=Mein Gott Walther
TTITLE10=Stuntman bei Karl May
TTITLE11=Manchmal glaub ich, Du liebst mich nicht mehr
TTITLE12=Salakrokeisanofant
TTITLE13=Mama ist im Himmel bei John Wayne
EXTD=
EXTT0=
EXTT1=
EXTT2=
EXTT3=
EXTT4=
EXTT5=
EXTT6=
EXTT7=
EXTT8=
EXTT9=
EXTT10=
EXTT11=
EXTT12=
EXTT13=
PLAYORDER=
